<svg xmlns="http://www.w3.org/2000/svg" viewBox="0 0 130 68" width="126" height="68">
  <path d="M118.59 43.89c-.08 0-.15 0-.23-.08L96.5 36.48c-.38-.15-.6-.53-.45-.98.15-.38.53-.6.98-.45l21.86 7.33c.38.15.61.53.45.98-.15.3-.45.53-.75.53zM1.3 13.3c-2.34-.61-.83-6.58-.68-7.26C.77 5.44 2.28 0 4.48 0c.07 0 .22 0 .3.08.83.22 1.29 1.13 1.29 2.79 0 1.29-.23 2.87-.61 4.53-.15.53-1.66 5.97-3.86 5.97-.07 0-.22 0-.3-.07zm.76-6.88c-.76 2.95-.61 4.84-.38 5.37.45-.31 1.51-1.89 2.27-4.91.83-2.95.6-4.84.38-5.37-.46.3-1.52 1.89-2.27 4.91zm84.89 31.6L66 31.07 68.34 22l20.96 6.95c1.36.38 1.96 2.57 1.28 5.14-.6 2.42-1.96 4-3.25 4-.15 0-.3 0-.38-.07zm.38-1.36c.38 0 1.29-.98 1.82-2.8.53-1.96.07-3.25-.23-3.32l-19.52-6.5-1.58 6.12z"/>
  <path d="M81.45 54.01l.31-.98c.37-1.36.53-2.72.53-4.08 0-2.04-.38-4-1.21-5.89l-.08-.23.23-.83h40.54c1.89 0 3.48 1.59 3.48 3.48v5.06c0 1.89-1.59 3.47-3.56 3.47zm40.32-1.51c1.14 0 2.04-.9 2.04-2.04V45.4c0-1.06-.9-1.96-1.96-1.96H83.04c.61 1.73.91 3.62.91 5.44-.08 1.28-.23 2.41-.45 3.62z"/>
  <path d="M85 43.98l1.59-5.74-1.21-.38.3-1.51 1.44.45c.38 0 1.28-.98 1.74-2.79.53-1.97.07-3.25-.23-3.33l-1.36-.45.98-3.85 5.22-.38 5.6 1.81-4.24 16.17zm8.7-1.51l3.55-13.6-3.93-1.28-3.78.22-.38 1.44c1.36.38 1.89 2.57 1.21 5.14-.45 1.58-1.21 2.87-2.04 3.55l-1.36 4.53zM34.05 54.94l-1.36-2.04c-.6-.98-.83-2.11-.6-3.24l7.33-28.19 10.06 3.18c.23.07.46.07.68.07.69-.07 1.21-.53 1.37-1.21l3.32-12.84c.16-.53.53-.83 1.06-.91l11.43-.75c1.43-.08 2.72.53 3.55 1.58.76.99 1.06 2.35.76 3.55l-4.92 18.89-.38.53h-1.28c-9.38 0-17.1 7.26-17.1 16.1 0 2.04.38 4 1.21 5.89l.46.98-11.5.45h-.38c-1.51 0-2.87-.75-3.71-2.04zm-.53-4.98c-.15.68 0 1.43.38 2.11l1.36 2.12c.61.91 1.59 1.36 2.65 1.28l9.46-.3c-.61-1.74-.91-3.63-.91-5.51 0-9.75 8.32-17.61 18.61-17.61h.37l4.77-18.28c.23-.76.08-1.59-.45-2.27-.53-.68-1.37-1.06-2.27-.98l-11.2.75-3.33 12.62c-.3 1.29-1.43 2.19-2.72 2.27-.45.07-.83 0-1.29-.15l-1.51-.53-6.96-2.12z"/>
  <path d="M42 15.14l.83-3.1c.3-1.06 1.14-1.74 2.2-1.81l5.59-.23c.46 0 .76.15.99.45.22.31.3.68.22 1.06l-1.66 6.2zm7.03.6l1.14-4.3-5.14.22c-.38 0-.69.3-.84.68l-.45 1.74z"/>
  <path d="M49.64 26.14L21.35 17.3c-.15-.07-.31-.07-.46 0l-4.31.91c-.45.07-.91.07-1.28-.08L1 13.37l.45-1.43h-.07c.3-.15 1.51-1.66 2.34-4.99.84-3.25.61-5.21.31-5.51l.15-.38.3-1.06h.08l14.29 4.76c.23.08.53.23.68.38l3.71 2.79c.07.08.15.15.3.15l31.54 10.05-1.51 5.9c-.38 1.36-1.59 2.26-2.95 2.26-.3 0-.68-.07-.98-.15zM21.8 15.79l28.29 8.84c.91.3 1.82-.23 2.04-1.13l1.21-4.54-30.18-9.29c-.3-.07-.53-.23-.75-.38L18.7 6.5c-.08-.08-.15-.15-.3-.15L5.77 2.12c.22 2.04-.46 4.83-.61 5.28-.15.46-.91 3.48-2.19 5.07l12.78 4.23c.15.07.3.07.53 0l4.31-.91c.15 0 .3-.07.45-.07.23 0 .53.07.76.07zM47 49.6C47 39.86 55.32 32 65.61 32c10.28 0 18.61 7.93 18.61 17.6 0 9.68-8.33 17.61-18.61 17.61C55.32 67.21 47 59.28 47 49.6zm1.51 0c0 8.84 7.72 16.1 17.1 16.1 9.38 0 17.09-7.26 17.09-16.1 0-8.84-7.71-16.09-17.09-16.09-9.38 0-17.1 7.25-17.1 16.09zm11.12.46c0-4.76 3.48-8.62 7.79-8.62 4.31 0 7.79 3.86 7.79 8.62s-3.48 8.61-7.79 8.61c-4.31 0-7.79-3.85-7.79-8.61zm1.51-.08c0 3.93 2.8 7.1 6.28 7.1 3.48 0 6.28-3.17 6.28-7.1 0-3.93-2.8-7.1-6.28-7.1-3.48 0-6.28 3.17-6.28 7.1z"/>
  <path d="M26 48.66c0-7.03 4.46-13.15 10.51-14.43l1.21-.23-4.16 16.02c-.07.3-.07.68 0 1.06.08.37.23.68.38 1.05l1.36 2.12c.61.91 1.59 1.36 2.65 1.28l10.44-.37v.68l.38-.16.3-.15.53 1.06h-.08c.23.38.38.76.61 1.13l.3.46-.3.38c-2.5 3.09-7.56 4.83-11.2 4.83-7.11 0-12.93-6.57-12.93-14.73zm1.59 0c0 7.25 5.14 13.22 11.42 13.22 3.1 0 7.41-1.44 9.68-3.93-.22-.45-.45-.91-.68-1.36l-9.91.38h-.3c-1.51 0-2.87-.76-3.71-2.04l-1.36-2.04c-.3-.45-.53-.98-.6-1.59-.08-.53-.08-1.13 0-1.66l3.55-13.6c-4.76 1.66-8.09 6.72-8.09 12.62z"/>
</svg>
